<?xml version="1.0" standalone="no"?>
<!DOCTYPE svg PUBLIC "-//W3C//DTD SVG 20010904//EN"
 "http://www.w3.org/TR/2001/REC-SVG-20010904/DTD/svg10.dtd">
<svg version="1.0" xmlns="http://www.w3.org/2000/svg"
 width="1191.000000pt" height="1191.000000pt" viewBox="0 0 1191.000000 1191.000000"
 preserveAspectRatio="xMidYMid meet">
<metadata>
Created by potrace 1.14, written by Peter Selinger 2001-2017
</metadata>
<g transform="translate(0.000000,1191.000000) scale(0.100000,-0.100000)"
fill="#000000" stroke="none">
<path d="M5592 11899 c-1980 -120 -3771 -1222 -4782 -2944 -117 -201 -294
-560 -379 -773 -779 -1949 -489 -4139 768 -5810 399 -530 919 -1021 1461
-1378 450 -297 972 -549 1467 -707 1624 -522 3399 -324 4858 540 487 289 969
678 1338 1081 407 444 696 863 960 1392 512 1024 714 2150 592 3300 -173 1631
-1030 3130 -2358 4126 -846 634 -1875 1039 -2917 1149 -328 34 -696 43 -1008
24z m383 -1669 c4 -6 -21 -10 -69 -10 -173 0 -455 -54 -651 -124 -638 -230
-1148 -775 -1328 -1421 -184 -656 -51 -1349 362 -1890 61 -81 250 -274 337
-346 166 -136 391 -266 598 -346 124 -48 335 -100 479 -118 67 -9 127 -18 132
-20 6 -2 -927 -4 -2072 -4 -1162 -1 -2084 3 -2087 8 -9 13 12 374 30 511 166
1316 898 2451 2024 3141 597 365 1299 582 2009 618 219 12 229 12 236 1z
m4257 -4405 c-22 -906 -357 -1820 -932 -2539 -656 -822 -1596 -1377 -2627
-1550 -244 -41 -693 -77 -693 -55 0 5 33 9 74 9 112 0 306 28 451 65 854 218
1479 928 1590 1805 21 163 16 463 -10 605 -40 221 -99 403 -189 589 -319 655
-946 1099 -1676 1187 -52 6 -97 13 -99 15 -2 2 922 3 2055 2 l2059 -3 -3 -130z"/>
</g>
</svg>
