<svg width="23" height="18" viewBox="0 0 23 18" fill="none" xmlns="http://www.w3.org/2000/svg">
<path fill-rule="evenodd" clip-rule="evenodd" d="M-6.55671e-08 16.5C-2.93554e-08 16.9142 0.335786 17.25 0.75 17.25L11.25 17.25C11.6642 17.25 12 16.9142 12 16.5C12 16.0858 11.6642 15.75 11.25 15.75L0.75 15.75C0.335786 15.75 -1.01779e-07 16.0858 -6.55671e-08 16.5Z" fill="#34393E"/>
<path fill-rule="evenodd" clip-rule="evenodd" d="M-6.55671e-08 16.5C-2.93554e-08 16.9142 0.335786 17.25 0.75 17.25L11.25 17.25C11.6642 17.25 12 16.9142 12 16.5C12 16.0858 11.6642 15.75 11.25 15.75L0.75 15.75C0.335786 15.75 -1.01779e-07 16.0858 -6.55671e-08 16.5Z" fill="black" fill-opacity="0.2"/>
<path fill-rule="evenodd" clip-rule="evenodd" d="M-6.55671e-08 16.5C-2.93554e-08 16.9142 0.335786 17.25 0.75 17.25L11.25 17.25C11.6642 17.25 12 16.9142 12 16.5C12 16.0858 11.6642 15.75 11.25 15.75L0.75 15.75C0.335786 15.75 -1.01779e-07 16.0858 -6.55671e-08 16.5Z" fill="black" fill-opacity="0.2"/>
<path fill-rule="evenodd" clip-rule="evenodd" d="M0 9C0 8.58579 0.335786 8.25 0.75 8.25H22.25C22.6642 8.25 23 8.58579 23 9C23 9.41421 22.6642 9.75 22.25 9.75H0.75C0.335786 9.75 0 9.41421 0 9Z" fill="#34393E"/>
<path fill-rule="evenodd" clip-rule="evenodd" d="M0 9C0 8.58579 0.335786 8.25 0.75 8.25H22.25C22.6642 8.25 23 8.58579 23 9C23 9.41421 22.6642 9.75 22.25 9.75H0.75C0.335786 9.75 0 9.41421 0 9Z" fill="black" fill-opacity="0.2"/>
<path fill-rule="evenodd" clip-rule="evenodd" d="M0 9C0 8.58579 0.335786 8.25 0.75 8.25H22.25C22.6642 8.25 23 8.58579 23 9C23 9.41421 22.6642 9.75 22.25 9.75H0.75C0.335786 9.75 0 9.41421 0 9Z" fill="black" fill-opacity="0.2"/>
<path fill-rule="evenodd" clip-rule="evenodd" d="M-6.55671e-08 1.5C-2.93554e-08 1.91421 0.335786 2.25 0.75 2.25L22.25 2.25C22.6642 2.25 23 1.91421 23 1.5C23 1.08578 22.6642 0.749998 22.25 0.749998L0.75 0.75C0.335786 0.75 -1.01779e-07 1.08579 -6.55671e-08 1.5Z" fill="#34393E"/>
<path fill-rule="evenodd" clip-rule="evenodd" d="M-6.55671e-08 1.5C-2.93554e-08 1.91421 0.335786 2.25 0.75 2.25L22.25 2.25C22.6642 2.25 23 1.91421 23 1.5C23 1.08578 22.6642 0.749998 22.25 0.749998L0.75 0.75C0.335786 0.75 -1.01779e-07 1.08579 -6.55671e-08 1.5Z" fill="black" fill-opacity="0.2"/>
<path fill-rule="evenodd" clip-rule="evenodd" d="M-6.55671e-08 1.5C-2.93554e-08 1.91421 0.335786 2.25 0.75 2.25L22.25 2.25C22.6642 2.25 23 1.91421 23 1.5C23 1.08578 22.6642 0.749998 22.25 0.749998L0.75 0.75C0.335786 0.75 -1.01779e-07 1.08579 -6.55671e-08 1.5Z" fill="black" fill-opacity="0.2"/>
</svg>
