<svg width="30" height="30" viewBox="0 0 30 30" fill="none" xmlns="http://www.w3.org/2000/svg">
<path fill-rule="evenodd" clip-rule="evenodd" d="M22.4309 10.1858C22.6531 10.7273 23.1797 11.0815 23.765 11.0833C24.5595 11.0897 25.2001 11.7355 25.2 12.5299V15.0266C25.2 15.8256 24.5523 16.4733 23.7534 16.4733C23.1681 16.475 22.6414 16.8292 22.4192 17.3707C22.197 17.9122 22.323 18.5342 22.7384 18.9466C23.2956 19.5176 23.2956 20.4289 22.7384 20.9999L20.9884 22.7499C20.4173 23.3072 19.5061 23.3072 18.935 22.7499C18.6717 22.4709 18.3037 22.3144 17.92 22.3183C17.5343 22.3151 17.1634 22.4662 16.8895 22.7378C16.6157 23.0095 16.4617 23.3792 16.4617 23.7649C16.4617 24.5639 15.814 25.2116 15.015 25.2116H12.5184C11.7194 25.2116 11.0717 24.5639 11.0717 23.7649C11.0717 23.3792 10.9177 23.0095 10.6439 22.7378C10.37 22.4662 9.99907 22.3151 9.61337 22.3183C9.22966 22.3144 8.86176 22.4709 8.59837 22.7499C8.02735 23.3072 7.11607 23.3072 6.54504 22.7499L4.79504 20.9999C4.2378 20.4289 4.2378 19.5176 4.79504 18.9466C5.21043 18.5342 5.3364 17.9122 5.11418 17.3707C4.89197 16.8292 4.36535 16.475 3.78004 16.4733C3.39636 16.4733 3.0284 16.3208 2.75709 16.0495C2.48579 15.7782 2.33337 15.4103 2.33337 15.0266V12.5299C2.33337 11.7309 2.98107 11.0833 3.78004 11.0833C4.36535 11.0815 4.89197 10.7273 5.11418 10.1858C5.3364 9.64433 5.21043 9.02229 4.79504 8.60992C4.2378 8.03889 4.2378 7.12761 4.79504 6.55658L6.54504 4.80659C7.11607 4.24935 8.02735 4.24935 8.59837 4.80659C8.86176 5.08564 9.22966 5.24211 9.61337 5.23825C10.0011 5.24139 10.3739 5.08875 10.648 4.81458C10.9222 4.54041 11.0748 4.16765 11.0717 3.77992C11.0717 2.98095 11.7194 2.33325 12.5184 2.33325H15.0267C15.8257 2.33325 16.4734 2.98095 16.4734 3.77992C16.4702 4.16765 16.6229 4.54041 16.897 4.81458C17.1712 5.08875 17.544 5.24139 17.9317 5.23825C18.3154 5.24211 18.6833 5.08564 18.9467 4.80659C19.5177 4.24935 20.429 4.24935 21 4.80659L22.75 6.55658C23.3073 7.12761 23.3073 8.03889 22.75 8.60992C22.3347 9.02229 22.2087 9.64433 22.4309 10.1858ZM20.7667 16.6949C21.2221 15.5845 22.265 14.8261 23.4617 14.7349L23.4267 12.8216C22.243 12.7178 21.2165 11.9614 20.7667 10.8616C20.3261 9.75917 20.5279 8.50377 21.2917 7.59492L19.95 6.25325C19.3811 6.72973 18.6622 6.99003 17.92 6.98825C16.2667 6.9842 14.8851 5.72866 14.7234 4.08325H12.81C12.6535 5.73128 11.2688 6.98965 9.61337 6.98825C8.87125 6.99003 8.15233 6.72973 7.58337 6.25325L6.27671 7.59492C7.02866 8.5107 7.21687 9.76548 6.76671 10.8616C6.31692 11.9614 5.2904 12.7178 4.10671 12.8216V14.7349C5.2904 14.8387 6.31692 15.5951 6.76671 16.6949C7.20729 17.7973 7.00552 19.0527 6.24171 19.9616L7.58337 21.3033C8.15233 20.8268 8.87125 20.5665 9.61337 20.5683C11.2667 20.5723 12.6483 21.8278 12.81 23.4733H14.7234C14.8692 21.8199 16.2603 20.5557 17.92 20.5683C18.6622 20.5665 19.3811 20.8268 19.95 21.3033L21.2567 19.9616C20.5048 19.0458 20.3165 17.791 20.7667 16.6949Z" fill="#434647"/>
<path fill-rule="evenodd" clip-rule="evenodd" d="M9.73004 13.7783C9.73004 11.5489 11.5373 9.74159 13.7667 9.74159C14.8373 9.74159 15.864 10.1669 16.6211 10.9239C17.3781 11.6809 17.8034 12.7077 17.8034 13.7783C17.8034 16.0076 15.9961 17.8149 13.7667 17.8149C11.5373 17.8149 9.73004 16.0076 9.73004 13.7783ZM11.4334 13.7783C11.4334 15.0669 12.478 16.1116 13.7667 16.1116C15.0554 16.1116 16.1 15.0669 16.1 13.7783C16.1 12.4896 15.0554 11.4449 13.7667 11.4449C12.478 11.4449 11.4334 12.4896 11.4334 13.7783Z" fill="#434647"/>
</svg>
