<svg width="166" height="40" viewBox="0 0 166 40" fill="none" xmlns="http://www.w3.org/2000/svg">
<path d="M120.457 0.509766L136.444 39.2359H132.222L127.381 27.0865H109.03L104.133 39.2359H100.024L116.236 0.509766H120.457ZM126.199 24.1034L118.318 3.98101L110.212 24.1034H126.199Z" fill="#FFF"/>
<path d="M136.177 0.764282H153.372C157.243 0.764282 160.306 1.70085 162.561 3.57399C164.854 5.4111 166 8.07672 166 11.5708C166 15.2451 164.854 18.0368 162.561 19.9459C160.269 21.8551 157.168 22.8097 153.259 22.8097H140.011V39.2356H136.177V0.764282ZM140.011 3.89818V19.7298H152.188C155.157 19.7298 157.563 19.0994 159.404 17.8386C161.246 16.5419 162.167 14.5426 162.167 11.841C162.167 9.17538 161.321 7.19418 159.63 5.89739C157.938 4.56459 155.589 3.89818 152.583 3.89818H140.011Z" fill="#FFF"/>
<path d="M105.305 0.764282L94.2499 39.2356H90.1535L82.0168 12.1652C80.9693 8.59903 80.2959 5.95143 79.9966 4.22238C79.6973 5.15895 79.3045 6.50977 78.8182 8.27484C78.3692 10.0399 78.0326 11.3007 77.8081 12.0571L69.8397 39.2356H65.6872L54.6324 0.764282H58.6166L66.08 27.4565C66.5663 29.2215 67.1836 31.8692 67.9318 35.3993C68.3433 33.1659 69.0167 30.5183 69.9519 27.4565L77.8642 0.764282H82.1851L90.2657 27.8347C91.2758 31.1847 91.9118 33.7063 92.1736 35.3993C92.3233 34.8229 92.5851 33.6702 92.9593 31.9412C93.3708 30.1761 93.7075 28.8253 93.9693 27.8887L101.489 0.764282H105.305Z" fill="#FFF"/>
<path d="M54.9807 11.8219H51.2887C51.1396 8.97886 50.0767 6.81961 48.1002 5.34413C46.161 3.83266 43.5319 3.07692 40.2128 3.07692C37.0802 3.07692 34.6375 3.7067 32.8848 4.96626C31.132 6.22582 30.2556 8.0072 30.2556 10.3104C30.2556 11.1381 30.3489 11.8758 30.5353 12.5236C30.7591 13.1354 31.132 13.6752 31.6541 14.143C32.2135 14.6109 32.717 15.0067 33.1645 15.3306C33.6493 15.6185 34.4138 15.9244 35.458 16.2483C36.5022 16.5362 37.3413 16.7701 37.9752 16.9501C38.6092 17.094 39.6161 17.3099 40.9959 17.5978C42.4877 17.9217 43.6997 18.1916 44.632 18.4076C45.5643 18.6235 46.6271 18.9114 47.8205 19.2713C49.0139 19.6311 49.9648 19.991 50.6734 20.3509C51.4193 20.7108 52.1838 21.1606 52.9669 21.7004C53.7501 22.2402 54.3467 22.834 54.757 23.4818C55.1672 24.1296 55.5028 24.9033 55.7639 25.803C56.0622 26.6667 56.2114 27.6383 56.2114 28.7179C56.2114 31.345 55.4469 33.5403 53.9179 35.3036C52.4262 37.067 50.5988 38.2906 48.4358 38.9744C46.2729 39.6581 43.8675 40 41.2197 40C36.2598 40 32.3627 38.8304 29.5284 36.4912C26.7315 34.152 25.333 30.9312 25.333 26.8286V26.5047H28.969C28.969 29.9955 30.0692 32.6226 32.2695 34.386C34.507 36.1493 37.5837 37.031 41.4994 37.031C44.9303 37.031 47.6341 36.3293 49.6106 34.9258C51.5871 33.5223 52.5753 31.5789 52.5753 29.0958C52.5753 26.6847 51.6244 24.9753 49.7224 23.9676C47.8578 22.924 44.315 21.8084 39.094 20.6208C37.4158 20.2609 36.1665 19.973 35.3461 19.7571C34.563 19.5412 33.5001 19.1633 32.1576 18.6235C30.815 18.0837 29.8081 17.5079 29.1369 16.8961C28.5029 16.2483 27.9249 15.3846 27.4028 14.305C26.8807 13.2254 26.6196 11.9658 26.6196 10.5263C26.6196 7.28745 27.8503 4.73234 30.3116 2.861C32.8102 0.953666 36.2038 0 40.4925 0C44.8185 0 48.268 1.00765 50.8412 3.02294C53.4144 5.00225 54.7942 7.93522 54.9807 11.8219Z" fill="#FFF"/>
<path d="M25.7419 11.4651L15.5349 24.4319L26.9196 39.2358H22.433L14.7497 29.0784C14.6375 28.9343 14.488 28.7542 14.301 28.5381C14.1515 28.286 13.9832 28.0339 13.7963 27.7817C13.6467 27.5296 13.4785 27.2594 13.2916 26.9713C12.8803 27.6196 12.3942 28.304 11.8334 29.0244L4.20619 39.2358H0L11.1604 24.6481L0.841238 11.4651H5.32784L11.553 19.5694C11.7773 19.8215 12.0764 20.2537 12.4503 20.8661C12.8616 21.4424 13.1607 21.8746 13.3476 22.1627C14.4319 20.6499 15.0488 19.7855 15.1984 19.5694L21.5918 11.4651H25.7419Z" fill="#FFF"/>
</svg>
