<svg width="24" height="24" viewBox="0 0 24 24" fill="none" xmlns="http://www.w3.org/2000/svg">
  <path
    d="M12 17.498C12.1989 17.498 12.3897 17.419 12.5303 17.2783C12.671 17.1377 12.75 16.9469 12.75 16.748V10.498C12.75 10.2991 12.671 10.1083 12.5303 9.96767C12.3897 9.82702 12.1989 9.748 12 9.748C11.8011 9.748 11.6103 9.82702 11.4697 9.96767C11.329 10.1083 11.25 10.2991 11.25 10.498V16.748C11.25 16.9469 11.329 17.1377 11.4697 17.2783C11.6103 17.419 11.8011 17.498 12 17.498ZM12 6.5C12.2652 6.5 12.5196 6.60536 12.7071 6.79289C12.8947 6.98043 13 7.23478 13 7.5C13 7.76522 12.8947 8.01957 12.7071 8.20711C12.5196 8.39464 12.2652 8.5 12 8.5C11.7348 8.5 11.4804 8.39464 11.2929 8.20711C11.1054 8.01957 11 7.76522 11 7.5C11 7.23478 11.1054 6.98043 11.2929 6.79289C11.4804 6.60536 11.7348 6.5 12 6.5ZM12 2C17.523 2 22 6.477 22 12C22 17.523 17.523 22 12 22C10.404 22.0022 8.83083 21.6208 7.41301 20.888L3.58701 21.955C3.37355 22.0146 3.14809 22.0163 2.93373 21.9601C2.71937 21.9038 2.52382 21.7916 2.36712 21.6349C2.21041 21.4782 2.09818 21.2826 2.04194 21.0683C1.98569 20.8539 1.98744 20.6285 2.04701 20.415L3.11501 16.592C2.38036 15.1729 1.99793 13.5979 2.00001 12C2.00001 6.477 6.47701 2 12 2ZM12 3.5C9.74567 3.5 7.58366 4.39553 5.9896 5.98959C4.39554 7.58365 3.50001 9.74566 3.50001 12C3.50001 13.47 3.87301 14.883 4.57301 16.137L4.72301 16.407L3.61101 20.391L7.59801 19.279L7.86801 19.429C9.00239 20.0597 10.2661 20.4222 11.5624 20.4888C12.8586 20.5554 14.1528 20.3242 15.3458 19.8131C16.5389 19.3019 17.599 18.5244 18.445 17.54C19.2909 16.5556 19.9002 15.3906 20.2261 14.1343C20.552 12.8779 20.5858 11.5636 20.325 10.2922C20.0643 9.02073 19.5158 7.82589 18.7216 6.79927C17.9275 5.77264 16.9088 4.94152 15.7437 4.36962C14.5786 3.79773 13.2979 3.50025 12 3.5Z"
    fill="#FF4057"
  />
</svg>