<svg width="24" height="27" viewBox="0 0 24 27" fill="none" xmlns="http://www.w3.org/2000/svg">
<path d="M19.505 8.26514H4.50504C3.26239 8.26514 2.25504 9.2725 2.25504 10.5151V19.5151C2.25504 20.7578 3.26239 21.7651 4.50504 21.7651H19.505C20.7477 21.7651 21.755 20.7578 21.755 19.5151V10.5151C21.755 9.2725 20.7477 8.26514 19.505 8.26514Z" stroke="#34393E" stroke-width="1.5" stroke-linejoin="round"/>
<path d="M19.505 8.26514H4.50504C3.26239 8.26514 2.25504 9.2725 2.25504 10.5151V19.5151C2.25504 20.7578 3.26239 21.7651 4.50504 21.7651H19.505C20.7477 21.7651 21.755 20.7578 21.755 19.5151V10.5151C21.755 9.2725 20.7477 8.26514 19.505 8.26514Z" stroke="black" stroke-opacity="0.2" stroke-width="1.5" stroke-linejoin="round"/>
<path d="M19.505 8.26514H4.50504C3.26239 8.26514 2.25504 9.2725 2.25504 10.5151V19.5151C2.25504 20.7578 3.26239 21.7651 4.50504 21.7651H19.505C20.7477 21.7651 21.755 20.7578 21.755 19.5151V10.5151C21.755 9.2725 20.7477 8.26514 19.505 8.26514Z" stroke="black" stroke-opacity="0.2" stroke-width="1.5" stroke-linejoin="round"/>
<path d="M19.2825 8.25022V6.84397C19.2824 6.49907 19.2062 6.15844 19.0592 5.84639C18.9123 5.53434 18.6984 5.25856 18.4326 5.03873C18.1668 4.8189 17.8558 4.66044 17.5217 4.57464C17.1877 4.48885 16.8388 4.47784 16.5 4.54241L4.155 6.64944C3.6189 6.7516 3.13526 7.03765 2.78749 7.45824C2.43972 7.87883 2.24963 8.4076 2.25 8.95335V11.2502" stroke="#34393E" stroke-width="1.5" stroke-linejoin="round"/>
<path d="M19.2825 8.25022V6.84397C19.2824 6.49907 19.2062 6.15844 19.0592 5.84639C18.9123 5.53434 18.6984 5.25856 18.4326 5.03873C18.1668 4.8189 17.8558 4.66044 17.5217 4.57464C17.1877 4.48885 16.8388 4.47784 16.5 4.54241L4.155 6.64944C3.6189 6.7516 3.13526 7.03765 2.78749 7.45824C2.43972 7.87883 2.24963 8.4076 2.25 8.95335V11.2502" stroke="black" stroke-opacity="0.2" stroke-width="1.5" stroke-linejoin="round"/>
<path d="M19.2825 8.25022V6.84397C19.2824 6.49907 19.2062 6.15844 19.0592 5.84639C18.9123 5.53434 18.6984 5.25856 18.4326 5.03873C18.1668 4.8189 17.8558 4.66044 17.5217 4.57464C17.1877 4.48885 16.8388 4.47784 16.5 4.54241L4.155 6.64944C3.6189 6.7516 3.13526 7.03765 2.78749 7.45824C2.43972 7.87883 2.24963 8.4076 2.25 8.95335V11.2502" stroke="black" stroke-opacity="0.2" stroke-width="1.5" stroke-linejoin="round"/>
<path d="M18 15.5C17.8022 15.5 17.6089 15.4414 17.4444 15.3315C17.28 15.2216 17.1518 15.0654 17.0761 14.8827C17.0004 14.7 16.9806 14.4989 17.0192 14.3049C17.0578 14.1109 17.153 13.9327 17.2929 13.7929C17.4327 13.653 17.6109 13.5578 17.8049 13.5192C17.9989 13.4806 18.2 13.5004 18.3827 13.5761C18.5654 13.6518 18.7216 13.78 18.8315 13.9444C18.9414 14.1089 19 14.3022 19 14.5C19 14.7652 18.8946 15.0196 18.7071 15.2071C18.5196 15.3946 18.2652 15.5 18 15.5Z" fill="#34393E"/>
<path d="M18 15.5C17.8022 15.5 17.6089 15.4414 17.4444 15.3315C17.28 15.2216 17.1518 15.0654 17.0761 14.8827C17.0004 14.7 16.9806 14.4989 17.0192 14.3049C17.0578 14.1109 17.153 13.9327 17.2929 13.7929C17.4327 13.653 17.6109 13.5578 17.8049 13.5192C17.9989 13.4806 18.2 13.5004 18.3827 13.5761C18.5654 13.6518 18.7216 13.78 18.8315 13.9444C18.9414 14.1089 19 14.3022 19 14.5C19 14.7652 18.8946 15.0196 18.7071 15.2071C18.5196 15.3946 18.2652 15.5 18 15.5Z" fill="black" fill-opacity="0.2"/>
<path d="M18 15.5C17.8022 15.5 17.6089 15.4414 17.4444 15.3315C17.28 15.2216 17.1518 15.0654 17.0761 14.8827C17.0004 14.7 16.9806 14.4989 17.0192 14.3049C17.0578 14.1109 17.153 13.9327 17.2929 13.7929C17.4327 13.653 17.6109 13.5578 17.8049 13.5192C17.9989 13.4806 18.2 13.5004 18.3827 13.5761C18.5654 13.6518 18.7216 13.78 18.8315 13.9444C18.9414 14.1089 19 14.3022 19 14.5C19 14.7652 18.8946 15.0196 18.7071 15.2071C18.5196 15.3946 18.2652 15.5 18 15.5Z" fill="black" fill-opacity="0.2"/>
</svg>
